<svg width="72" height="30" viewBox="0 0 72 30" fill="none" xmlns="http://www.w3.org/2000/svg">
<path fill-rule="evenodd" clip-rule="evenodd" d="M49.5149 3.145C48.2248 1.86339 46.4803 1.14376 44.6618 1.143C42.8433 1.14482 41.0992 1.86553 39.8098 3.148C39.1728 3.78177 38.667 4.53496 38.3215 5.36444C37.9759 6.19392 37.7973 7.08341 37.7958 7.982V21.662C37.8822 23.4201 38.6434 25.0771 39.9208 26.288C41.2015 27.5022 42.8992 28.1786 44.6638 28.178C46.4282 28.1784 48.1255 27.5019 49.4058 26.288C50.6834 25.0772 51.4446 23.4201 51.5308 21.662V7.982C51.5295 7.08269 51.3506 6.19248 51.0045 5.36244C50.6584 4.5324 50.1528 3.77885 49.5149 3.145ZM38.9989 2.34C40.5036 0.843069 42.5393 0.00191171 44.6618 0C46.7843 0.000741602 48.8204 0.840832 50.3259 2.337C51.0701 3.07688 51.6609 3.95637 52.0645 4.92507C52.4681 5.89376 52.6765 6.93259 52.6778 7.982V21.662C52.6775 22.711 52.47 23.7495 52.0672 24.7181C51.6645 25.6866 51.0744 26.5661 50.3308 27.306C48.8253 28.804 46.7877 29.6447 44.6638 29.644C42.54 29.6448 40.5023 28.8041 38.9968 27.306C38.2531 26.5662 37.6629 25.6867 37.2599 24.7182C36.857 23.7496 36.6493 22.711 36.6488 21.662V7.982C36.6503 6.93324 36.8587 5.89508 37.2619 4.92694C37.6652 3.95881 38.2554 3.07972 38.9989 2.34ZM44.6618 0L44.6638 0H44.6558L44.6618 0ZM26.5658 17.791C26.3712 17.7906 26.1799 17.7408 26.0098 17.6464C25.8396 17.552 25.6962 17.4159 25.5928 17.251C25.4901 17.0859 25.4312 16.8972 25.4219 16.7029C25.4127 16.5086 25.4533 16.3152 25.5399 16.141L29.8948 7.475C29.9843 7.25393 30.1406 7.06639 30.342 6.9387C30.5434 6.81101 30.7798 6.74957 31.0179 6.763C31.2558 6.77576 31.484 6.86208 31.6708 7.01003C31.8576 7.15799 31.9939 7.36028 32.0608 7.589C32.1045 7.74055 32.1162 7.89951 32.0952 8.05581C32.0742 8.21211 32.0209 8.36234 31.9389 8.497L27.5928 17.163C27.4961 17.3521 27.349 17.5109 27.1678 17.6217C26.9866 17.7325 26.7783 17.7911 26.5658 17.791ZM23.4419 22.64C23.6229 22.752 23.8319 22.812 24.0459 22.812V22.804C24.2405 22.8037 24.4318 22.754 24.602 22.6595C24.7722 22.5651 24.9156 22.429 25.0189 22.264C25.1216 22.0989 25.1805 21.9102 25.1898 21.7159C25.199 21.5216 25.1584 21.3282 25.0718 21.154L18.2038 7.476C18.1039 7.27064 17.9448 7.09992 17.747 6.98584C17.5491 6.87177 17.3216 6.81958 17.0938 6.836C16.8665 6.85181 16.649 6.93476 16.4688 7.07433C16.2886 7.2139 16.154 7.40381 16.0819 7.62C16.0345 7.76365 16.0164 7.91529 16.0284 8.06605C16.0404 8.21681 16.0824 8.36366 16.1518 8.498L23.0198 22.178C23.1138 22.368 23.2599 22.528 23.4419 22.641V22.64ZM4.58185 15.964C3.36835 15.9642 2.20414 15.4839 1.34385 14.628C0.919102 14.205 0.582072 13.7022 0.352103 13.1486C0.122133 12.595 0.00375171 12.0015 0.00375171 11.402C0.00375171 10.8025 0.122133 10.209 0.352103 9.65536C0.582072 9.10176 0.919102 8.59902 1.34385 8.176C2.20414 7.32014 3.36835 6.83979 4.58185 6.84H10.3019C10.6049 6.84 10.8955 6.96037 11.1097 7.17463C11.324 7.38889 11.4444 7.67949 11.4444 7.9825C11.4444 8.28551 11.324 8.57611 11.1097 8.79037C10.8955 9.00463 10.6049 9.125 10.3019 9.125H4.58185C4.2698 9.10657 3.95726 9.15185 3.66328 9.2581C3.3693 9.36435 3.10002 9.52933 2.87185 9.743C2.64478 9.95644 2.46376 10.2141 2.33994 10.5001C2.21612 10.7861 2.15211 11.0944 2.15185 11.406C2.15164 11.7177 2.21544 12.0262 2.33929 12.3122C2.46313 12.5983 2.6444 12.8559 2.87185 13.069C3.09982 13.283 3.36906 13.4481 3.6631 13.5544C3.95713 13.6607 4.26977 13.7058 4.58185 13.687C4.81999 13.6671 5.05841 13.7219 5.26397 13.8438C5.46952 13.9657 5.63201 14.1485 5.72885 14.367C5.79284 14.5119 5.82589 14.6686 5.82589 14.8271C5.82589 14.9855 5.79283 15.1422 5.72883 15.2871C5.66484 15.4321 5.57131 15.562 5.45422 15.6688C5.33714 15.7755 5.19907 15.8567 5.04885 15.907C4.89885 15.958 4.73985 15.977 4.58185 15.964ZM9.16385 22.812H1.14885C0.844866 22.8119 0.553283 22.6915 0.337851 22.477C0.176768 22.3175 0.0669019 22.1136 0.0222911 21.8913C-0.0223197 21.669 0.000350706 21.4385 0.0874056 21.2292C0.17446 21.0199 0.321946 20.8413 0.511017 20.7162C0.700088 20.5911 0.922158 20.5252 1.14885 20.527H9.16385C9.74738 20.4928 10.2959 20.2374 10.6979 19.813C11.0987 19.3896 11.3222 18.8286 11.3222 18.2455C11.3222 17.6624 11.0987 17.1014 10.6979 16.678C10.2959 16.2536 9.74736 15.9983 9.16385 15.964C8.92571 15.9839 8.68729 15.9291 8.48174 15.8072C8.27618 15.6853 8.11369 15.5025 8.01685 15.284C7.9527 15.1391 7.91953 14.9824 7.91945 14.8239C7.91938 14.6654 7.95241 14.5087 8.01642 14.3637C8.08044 14.2187 8.17403 14.0887 8.2912 13.982C8.40837 13.8753 8.54654 13.7942 8.69685 13.744C8.84685 13.694 9.00585 13.674 9.16385 13.687C10.3789 13.687 11.5439 14.167 12.4029 15.023C12.8278 15.446 13.1649 15.9488 13.395 16.5025C13.625 17.0562 13.7435 17.6499 13.7435 18.2495C13.7435 18.8491 13.625 19.4428 13.395 19.9965C13.1649 20.5502 12.8278 21.053 12.4029 21.476C11.5421 22.3323 10.378 22.8127 9.16385 22.812ZM58.3979 9.125H69.8549C70.1589 9.125 70.4509 9.005 70.6659 8.79C70.8269 8.63049 70.9368 8.42657 70.9814 8.2043C71.026 7.98203 71.0033 7.75151 70.9163 7.54219C70.8292 7.33288 70.6818 7.15427 70.4927 7.02919C70.3036 6.90411 70.0815 6.83824 69.8549 6.84H58.3988C58.0958 6.84 57.8052 6.96037 57.591 7.17463C57.3767 7.38889 57.2564 7.67949 57.2564 7.9825C57.2564 8.28551 57.3767 8.57611 57.591 8.79037C57.8052 9.00463 58.0948 9.125 58.3979 9.125ZM64.1269 22.812C63.8305 22.8012 63.5498 22.6762 63.3435 22.4631C63.1372 22.2501 63.0212 21.9656 63.0199 21.669V12.544C62.9995 12.3062 63.0545 12.068 63.1768 11.8631C63.2992 11.6582 63.4829 11.4969 63.7018 11.402C63.8471 11.3387 64.0039 11.306 64.1624 11.3062C64.3209 11.3063 64.4776 11.3392 64.6228 11.4027C64.7679 11.4663 64.8984 11.5592 65.006 11.6756C65.1135 11.7919 65.1959 11.9293 65.2479 12.079C65.2999 12.229 65.3199 12.387 65.3059 12.544V21.669C65.3061 21.8995 65.2365 22.1247 65.1062 22.3148C64.9758 22.5049 64.7909 22.6511 64.5759 22.734C64.4326 22.7898 64.2806 22.8163 64.1269 22.812ZM44.6558 12.545C43.7502 12.5448 42.8647 12.2769 42.1109 11.775C41.358 11.2748 40.7705 10.5624 40.4229 9.728C40.0758 8.89434 39.985 7.97622 40.1618 7.09071C40.3387 6.2052 40.7752 5.39242 41.4159 4.756C42.0582 4.11802 42.8745 3.68384 43.7626 3.50791C44.6506 3.33197 45.5708 3.4221 46.4078 3.767C47.2458 4.112 47.9608 4.697 48.4649 5.447C49.0535 6.32409 49.3185 7.3787 49.2145 8.42987C49.1105 9.48105 48.644 10.4633 47.8949 11.208C47.0342 12.0647 45.8702 12.5455 44.6558 12.545ZM44.6558 5.705C44.2026 5.70554 43.7596 5.83993 43.3824 6.09131C43.0053 6.34269 42.7108 6.69986 42.5359 7.118C42.3622 7.53589 42.3171 7.99604 42.4061 8.43972C42.4952 8.8834 42.7144 9.29047 43.0359 9.609C43.358 9.92886 43.7676 10.1461 44.2131 10.2333C44.6586 10.3205 45.1199 10.2738 45.5388 10.099C45.8171 9.98478 46.0699 9.81661 46.2829 9.6042C46.4958 9.39179 46.6646 9.13933 46.7795 8.86138C46.8944 8.58343 46.9531 8.28549 46.9523 7.98473C46.9515 7.68397 46.8912 7.38634 46.7748 7.109C46.6594 6.83169 46.4903 6.57997 46.2771 6.36835C46.0639 6.15673 45.811 5.9894 45.5328 5.876C45.2545 5.76209 44.9566 5.70399 44.6558 5.705ZM43.8498 25.895C44.0629 26.109 44.3528 26.23 44.6558 26.232C44.8823 26.2317 45.1036 26.1646 45.2921 26.0392C45.4806 25.9138 45.628 25.7357 45.7159 25.527C45.7729 25.388 45.8028 25.239 45.8028 25.089V18.249C45.8229 18.0114 45.7679 17.7734 45.6456 17.5687C45.5232 17.364 45.3397 17.2028 45.1208 17.108C44.9756 17.0448 44.8188 17.0122 44.6603 17.0123C44.5019 17.0125 44.3452 17.0453 44.2 17.1087C44.0548 17.1722 43.9242 17.2649 43.8165 17.3811C43.7088 17.4973 43.6262 17.6344 43.5738 17.784C43.5229 17.934 43.5038 18.092 43.5168 18.25V25.09C43.5168 25.391 43.6368 25.68 43.8498 25.895Z" fill="white"/>
</svg>
